<?xml version="1.0" encoding="UTF-8" standalone="no"?>
<!-- Created with Inkscape (http://www.inkscape.org/) -->

<svg
   version="1.1"
   id="svg1"
   width="128"
   height="128"
   viewBox="0 0 128 128"
   xmlns="http://www.w3.org/2000/svg"
   xmlns:svg="http://www.w3.org/2000/svg">
  <defs
     id="defs1" />
  <g
     id="g1">
    <g
       id="g11"
       transform="matrix(0.17221881,0,0,0.17221881,5.2159803,5.2159783)">
      <path
         style="fill:#009bff;fill-opacity:1"
         d="m 437.1118,195.97688 c -17.8306,-6.24065 -26.3705,-20.02268 -29.838,-43.99544 -0.7078,-4.89291 3.4175,-43.91439 3.403,-82.23106 l -0.026,-69.66666 h 11.0039 11.0039 l 84.9961,85.00387 84.9961,85.00388 v 10.99613 10.99612 l -75,-0.15682 c -41.25,-0.0863 -55.8821,16.17974 -59.0969,15.05456 z"
         id="path6" />
      <path
         style="fill:#0000fe;fill-opacity:1"
         d="M 124.7761,681.34108 C 103.0197,677.69666 84.9691,659.09687 81.2702,636.51143 79.6168,626.41574 79.5886,58.51922 81.2412,47.09486 84.6941,23.22178 103.0268,4.80464 126.7509,1.37552 c 4.824,-0.69726 68.7085,-1.2499 146.233,-1.265 l 137.6667,-0.0268 v 74.38653 c 0,61.71447 0.3396,75.69045 1.9936,82.04067 3.3775,17.06538 14.8747,27.2736 29.3397,34.90613 l 80.3333,0.37322 80.3334,0.37321 -0.01,218.29346 c 0,136.40182 -0.4986,221.29462 -1.3162,226.29346 -3.7707,23.05406 -21.7103,40.91311 -44.9151,44.71349 -9.58,1.56898 -422.2366,1.45156 -431.6353,-0.12281 z"
         id="path2" />
      <path
         style="font-size:266.667px;font-family:'Futura LT Pro';-inkscape-font-specification:'Futura LT Pro';text-align:center;text-anchor:middle;fill:#ffffff;stroke-width:5.676"
         d="m 220.4,427.37046 c 26.40003,0 42.13338,20.26669 42.13338,45.33338 0,25.33337 -14.40002,47.46673 -41.86672,47.46673 -26.6667,0 -41.06671,-23.20003 -41.06671,-47.73339 0,-23.4667 16.00002,-45.06672 40.80005,-45.06672 z m -39.73339,-16.26669 h -21.33336 v 195.73357 h 21.33336 v -88.00011 h 0.53334 c 10.13334,13.60002 25.8667,21.0667 42.93338,21.0667 37.60005,0 60.26674,-30.13337 60.26674,-65.86675 0,-34.66671 -23.20002,-66.40008 -60.00007,-66.40008 -17.33335,0 -32.80004,7.46667 -43.20005,21.33336 h -0.53334 z m 185.60014,16.26669 c 26.40003,0 42.13338,20.26669 42.13338,45.33338 0,25.33337 -14.40002,47.46673 -41.86672,47.46673 -26.6667,0 -41.06671,-23.20003 -41.06671,-47.73339 0,-23.4667 16.00002,-45.06672 40.80005,-45.06672 z m 41.06671,109.0668 h 21.33336 V 316.43699 h -21.33336 v 112.53347 h -0.53333 c -10.13335,-13.33335 -26.13337,-21.33336 -42.93339,-21.33336 -37.60004,0 -60.26674,30.6667 -60.26674,66.40008 0,34.66671 23.20003,65.86675 60.00008,65.86675 17.06668,0 32.80004,-7.20001 43.20005,-20.80003 h 0.53333 z m 84.26655,-105.60013 h 31.73337 v -19.73336 h -31.73337 v -42.40005 c 0,-22.13336 0,-34.40004 17.33336,-34.40004 5.33334,0 9.60001,1.33333 14.40001,2.93333 v -21.60002 c -5.06667,-1.60001 -10.13334,-2.66667 -15.20001,-2.66667 -12.80002,0 -25.33337,4.53334 -32.26671,15.73335 -5.60001,9.06668 -5.60001,22.13336 -5.60001,32.53337 v 49.86673 H 458.5333 v 19.73336 h 11.73335 v 105.60013 h 21.33336 z"
         id="text9"
         aria-label="pdf" />
      <path
         d="m 204.52604,319.41798 c -4.73659,-3.38328 -10.60094,-5.30047 -16.35252,-5.30047 -15.56309,0 -28.30678,12.17981 -28.30678,27.96845 0,16.01419 12.17981,27.96845 28.194,27.96845 6.31546,0 11.61593,-1.9172 16.80363,-5.41325 v -12.06703 h -0.22555 c -4.39827,5.75157 -9.69874,9.13485 -17.25473,9.13485 -11.05205,0 -18.26971,-9.13485 -18.26971,-19.62302 0,-10.60095 7.78154,-19.62303 18.72081,-19.62303 7.10489,0 12.29259,3.60884 16.4653,8.90931 h 0.22555 z m 29.88562,44.20819 -17.14195,34.73501 h 10.26262 L 266.6656,315.5836 h -10.26262 l -17.14195,38.00551 -18.72081,-38.00551 h -10.48817 z m 62.5906,-41.16324 c 11.16482,0 17.8186,8.57098 17.8186,19.17192 0,10.71372 -6.0899,20.07413 -17.70583,20.07413 -11.2776,0 -17.3675,-9.81151 -17.3675,-20.1869 0,-9.92429 6.76656,-19.05915 17.25473,-19.05915 z m 26.38958,-6.87933 h -9.02208 v 7.55599 h -0.22555 c -4.39827,-5.6388 -10.93927,-9.02208 -18.15694,-9.02208 -15.90141,0 -25.48737,12.96924 -25.48737,28.08122 0,14.66088 9.81151,27.85568 25.3746,27.85568 7.44321,0 13.64589,-2.93218 18.26971,-8.79653 h 0.22555 v 7.33044 h 9.02208 z m 25.71289,0 h -9.02208 v 53.00472 h 9.02208 v -25.14905 c 0,-9.47318 0.78943,-20.97634 13.19479,-20.97634 10.48817,0 11.16483,7.66877 11.16483,16.23975 v 29.88564 h 9.02208 v -31.46451 c 0,-12.40536 -3.38328,-23.0063 -18.04416,-23.0063 -6.54101,0 -11.39038,2.8194 -15.11199,7.89432 h -0.22555 z"
         id="text10"
         style="font-size:112.776px;font-family:'Futura LT Pro';-inkscape-font-specification:'Futura LT Pro';text-align:center;text-anchor:middle;fill:#ffffff;stroke-width:2.40045"
         aria-label="cyan" />
    </g>
  </g>
</svg>
